<?xml version="1.0" standalone="no"?>
<!DOCTYPE svg PUBLIC "-//W3C//DTD SVG 20010904//EN"
 "http://www.w3.org/TR/2001/REC-SVG-20010904/DTD/svg10.dtd">
<svg version="1.0" xmlns="http://www.w3.org/2000/svg"
 width="992.000000pt" height="992.000000pt" viewBox="0 0 992.000000 992.000000"
 preserveAspectRatio="xMidYMid meet">
<metadata>
Created by potrace 1.14, written by Peter Selinger 2001-2017
</metadata>
<g transform="translate(0.000000,992.000000) scale(0.100000,-0.100000)"
fill="#000000" stroke="none">
<path d="M3710 9091 c0 -5 64 -100 142 -212 78 -112 144 -211 146 -219 2 -8 5
-168 8 -355 5 -406 16 -372 -138 -416 -92 -27 -242 -89 -528 -217 -25 -11
-108 -64 -185 -117 -167 -116 -171 -118 -195 -110 -10 3 -34 8 -52 10 -18 2
-73 11 -123 20 -98 18 -329 25 -439 12 -65 -7 -193 -34 -281 -60 -72 -20 -208
-109 -340 -221 -71 -61 -138 -120 -148 -131 -10 -11 -44 -47 -76 -80 -58 -61
-176 -215 -165 -215 4 0 2 -6 -4 -13 -6 -7 -30 -62 -53 -122 -54 -140 -80
-182 -127 -202 -20 -8 -143 -62 -272 -120 -291 -131 -394 -199 -492 -325 -127
-163 -215 -363 -267 -608 -18 -84 -21 -219 -6 -306 3 -22 8 -59 10 -84 4 -46
5 -50 26 -135 28 -114 16 -205 -46 -337 -19 -43 -40 -101 -45 -130 -32 -164
-32 -529 0 -618 4 -14 27 -95 50 -180 50 -185 162 -475 255 -660 178 -355 426
-644 655 -760 58 -30 75 -34 161 -37 62 -2 113 2 143 11 25 8 46 12 46 10 0
-5 73 35 160 86 73 43 241 160 296 207 214 180 265 227 296 269 40 55 73 115
70 127 -1 4 3 7 8 7 5 0 9 3 8 8 -1 4 6 32 15 62 9 30 20 73 24 95 13 65 6
245 -12 315 -9 36 -17 70 -18 75 -18 72 -276 338 -380 392 -34 18 -63 36 -64
40 -2 5 30 27 69 51 120 71 170 125 343 372 130 185 231 317 252 328 15 9 63
-6 63 -19 0 -4 30 -32 68 -63 124 -105 143 -121 189 -168 25 -26 60 -67 77
-92 25 -37 92 -120 221 -278 8 -10 17 -29 21 -43 3 -14 10 -25 15 -25 5 0 8
-3 7 -8 -1 -7 5 -27 22 -67 5 -11 15 -38 22 -60 7 -22 15 -42 18 -45 3 -3 12
-25 19 -50 7 -25 19 -65 26 -90 17 -54 37 -127 42 -155 5 -21 5 -23 17 -65 3
-14 7 -45 9 -70 1 -25 5 -49 8 -55 6 -12 3 -354 -4 -410 -3 -22 -8 -51 -11
-65 -3 -14 -9 -41 -12 -60 -3 -19 -21 -93 -40 -165 -18 -71 -36 -148 -40 -170
-10 -70 -12 -437 -2 -469 5 -17 11 -38 13 -46 8 -32 48 -115 66 -134 11 -11
19 -25 19 -32 0 -7 4 -14 8 -16 4 -2 20 -23 34 -48 15 -25 40 -59 55 -76 15
-17 46 -54 68 -82 22 -27 55 -60 74 -73 19 -13 39 -29 45 -34 18 -17 165 -107
236 -144 88 -46 179 -91 185 -91 2 0 14 -4 27 -9 13 -5 26 -8 29 -7 4 0 15 -6
25 -15 11 -10 55 -29 99 -44 44 -15 89 -31 100 -35 57 -22 245 -80 275 -84 19
-3 58 -9 85 -14 57 -11 46 -10 185 -17 210 -12 375 -13 392 -4 12 6 18 6 18 0
0 -5 10 -8 23 -5 12 3 41 7 65 9 23 2 51 6 61 10 11 3 28 8 38 10 80 16 124
28 158 44 22 10 55 22 73 26 17 3 32 11 32 16 0 5 6 9 14 9 7 0 30 7 50 15 20
8 37 14 38 13 2 -1 14 5 28 12 14 8 27 15 30 15 57 14 191 64 200 75 3 4 28
17 55 30 28 13 66 35 85 48 19 13 49 30 67 39 18 8 33 19 33 24 0 4 16 16 35
25 19 9 35 20 35 25 0 5 6 9 13 9 27 0 140 110 192 186 22 33 73 103 113 157
43 57 81 121 92 152 10 30 17 55 15 55 -3 0 0 12 6 28 6 15 12 68 14 119 1 50
6 96 9 102 4 5 2 12 -4 16 -7 4 -7 12 0 24 5 10 6 21 3 25 -3 3 -8 18 -9 33
-6 57 -14 104 -18 111 -19 31 -28 199 -28 492 1 234 4 318 17 410 10 76 67
325 88 385 46 133 160 318 421 685 86 121 318 398 339 405 40 14 54 -4 109
-143 45 -112 71 -160 138 -255 83 -116 84 -117 169 -159 68 -34 97 -43 137
-43 l50 0 1 -78 c1 -44 4 -81 7 -85 3 -3 0 -12 -6 -21 -7 -9 -8 -13 -3 -8 5 4
15 -15 22 -43 7 -28 31 -78 53 -112 22 -34 40 -72 40 -83 0 -19 -5 -22 -37
-19 -52 3 -160 -33 -208 -69 -81 -61 -150 -162 -194 -282 -40 -110 -44 -133
-42 -230 1 -123 8 -152 62 -260 62 -126 116 -185 294 -320 209 -158 339 -236
445 -265 58 -16 158 -22 165 -10 3 6 13 10 22 10 36 0 175 78 273 154 280 216
488 481 586 747 127 347 157 476 155 681 -1 142 -9 304 -15 328 -3 8 -7 38
-11 65 -9 79 -16 118 -25 145 -4 14 -27 86 -50 160 -24 74 -48 147 -56 161
-17 34 -24 81 -13 94 11 14 80 154 77 157 -1 2 3 12 9 23 10 18 19 59 28 122
2 12 6 27 10 33 3 5 8 97 9 203 4 238 -5 283 -89 423 -103 174 -192 281 -327
396 -217 183 -248 202 -503 298 l-140 52 -100 174 c-179 313 -248 400 -441
555 -101 80 -149 108 -294 172 -91 40 -195 64 -310 72 -36 2 -65 5 -65 5 0 1
-81 2 -180 2 -181 1 -290 -6 -355 -23 -71 -18 -108 -12 -148 27 -31 30 -224
164 -236 164 -2 0 -31 18 -64 40 -72 49 -401 198 -455 206 -21 4 -42 15 -47
24 -8 15 -12 220 -12 642 0 55 4 72 25 100 43 57 254 394 262 416 l6 22 -1305
0 c-746 0 -1306 -4 -1306 -9z"/>
</g>
</svg>
