<svg xmlns="http://www.w3.org/2000/svg" xmlns:xlink="http://www.w3.org/1999/xlink" width="26px" height="20px" viewBox="0 0 26 20" version="1.1">
<g id="surface1">
<path style=" stroke:none;fill-rule:nonzero;fill:#ffa026;fill-opacity:1;" d="M 0.0976562 19.152344 L 0.0976562 15.851562 C 0.0976562 15.183594 0.265625 14.566406 0.609375 14.007812 C 0.953125 13.449219 1.410156 13.019531 1.976562 12.726562 C 3.191406 12.117188 4.425781 11.65625 5.679688 11.351562 C 6.929688 11.046875 8.203125 10.894531 9.496094 10.894531 C 10.789062 10.894531 12.0625 11.046875 13.316406 11.351562 C 14.570312 11.65625 15.804688 12.117188 17.019531 12.726562 C 17.585938 13.019531 18.042969 13.449219 18.382812 14.007812 C 18.726562 14.566406 18.898438 15.183594 18.898438 15.851562 L 18.898438 19.152344 Z M 21.25 19.152344 L 21.25 15.613281 C 21.25 14.75 21.007812 13.917969 20.53125 13.121094 C 20.050781 12.328125 19.367188 11.644531 18.488281 11.074219 C 19.488281 11.191406 20.425781 11.394531 21.308594 11.679688 C 22.1875 11.964844 23.011719 12.3125 23.777344 12.726562 C 24.480469 13.117188 25.019531 13.554688 25.390625 14.039062 C 25.765625 14.519531 25.949219 15.042969 25.949219 15.613281 L 25.949219 19.152344 Z M 9.496094 9.714844 C 8.203125 9.714844 7.097656 9.253906 6.175781 8.332031 C 5.257812 7.40625 4.796875 6.296875 4.796875 4.996094 C 4.796875 3.699219 5.257812 2.589844 6.175781 1.664062 C 7.097656 0.742188 8.203125 0.277344 9.496094 0.277344 C 10.789062 0.277344 11.898438 0.742188 12.816406 1.664062 C 13.738281 2.589844 14.199219 3.699219 14.199219 4.996094 C 14.199219 6.296875 13.738281 7.40625 12.816406 8.332031 C 11.898438 9.253906 10.789062 9.714844 9.496094 9.714844 Z M 21.25 4.996094 C 21.25 6.296875 20.789062 7.40625 19.867188 8.332031 C 18.949219 9.253906 17.839844 9.714844 16.546875 9.714844 C 16.332031 9.714844 16.058594 9.691406 15.726562 9.644531 C 15.394531 9.59375 15.117188 9.539062 14.902344 9.480469 C 15.433594 8.851562 15.839844 8.152344 16.121094 7.386719 C 16.40625 6.621094 16.546875 5.824219 16.546875 4.996094 C 16.546875 4.171875 16.40625 3.375 16.121094 2.609375 C 15.839844 1.84375 15.433594 1.144531 14.902344 0.515625 C 15.175781 0.417969 15.453125 0.351562 15.726562 0.324219 C 16 0.292969 16.273438 0.277344 16.546875 0.277344 C 17.839844 0.277344 18.949219 0.742188 19.867188 1.664062 C 20.789062 2.589844 21.25 3.699219 21.25 4.996094 Z M 21.25 4.996094 "/>
</g>
</svg>