<svg width="16" height="16" viewBox="0 0 16 16" fill="none" xmlns="http://www.w3.org/2000/svg">
<path d="M10.6872 11.7744L11.7744 10.6872L8.77949 7.68786V3.95897H7.24103V8.30769L10.6872 11.7744ZM8 16C6.89358 16 5.85382 15.7897 4.88072 15.369C3.9076 14.9483 3.06113 14.3773 2.34129 13.6561C1.62146 12.935 1.05128 12.0883 0.630769 11.1162C0.210256 10.144 0 9.1053 0 8C0 6.89358 0.210345 5.85382 0.631036 4.88072C1.05173 3.9076 1.62267 3.06113 2.34386 2.34129C3.06505 1.62146 3.91171 1.05128 4.88384 0.630769C5.85598 0.210256 6.8947 0 8 0C9.10642 0 10.1462 0.210345 11.1193 0.631036C12.0924 1.05173 12.9389 1.62267 13.6587 2.34386C14.3785 3.06505 14.9487 3.91171 15.3692 4.88384C15.7897 5.85598 16 6.8947 16 8C16 9.10642 15.7897 10.1462 15.369 11.1193C14.9483 12.0924 14.3773 12.9389 13.6561 13.6587C12.935 14.3785 12.0883 14.9487 11.1162 15.3692C10.144 15.7897 9.1053 16 8 16Z" fill="#F5F5F5"/>
</svg>
