<svg xmlns="http://www.w3.org/2000/svg" width="51" height="50"><path d="M2.586.305C1.57.707.555 2.035.28 3.3-.089 4.875-.089 45.207.25 46.75c.184.68.738 1.637 1.23 2.16l.95.957 10.36.094c9.19.062 10.452.031 11.62-.434 1.938-.832 2-1.172 2-14.14 0-8.371.09-11.274.367-11.367.215-.09.246-.278.094-.586-.156-.247-.308-4.91-.371-10.375-.063-10.993-.121-11.274-2.027-12.446-.922-.586-1.598-.617-11.13-.586-5.562 0-10.421.121-10.757.278ZM6.828 2.59C7.84 3.61 8.95 3.762 14.051 3.64c4.304-.093 4.336-.093 5.258-.988.796-.773 1.074-.867 2.09-.71.769.124 1.476.523 2.027 1.14l.832.93v41.996l-.895.988-.89 1.02-8.79.093c-7.44.063-8.945 0-9.808-.402-1.996-.957-1.906.152-1.996-22.02-.063-13.71.031-20.566.246-21.398.613-2.223 3.258-3.184 4.703-1.7ZM27.852 23.371c-.368.34-.247.711.246.711.246 0 .46-.215.46-.46 0-.497-.367-.618-.706-.25ZM29.36 23.371c-.34.34-.184.711.277.711.246 0 .46-.121.46-.277 0-.403-.492-.68-.738-.434ZM30.926 23.371c-.367.34-.246.711.246.711.246 0 .46-.215.46-.46 0-.497-.366-.618-.706-.25ZM32.465 23.34c-.246.25.031.742.43.742.152 0 .277-.215.277-.46 0-.466-.371-.618-.707-.282ZM34 23.34c-.246.25.031.742.43.742.156 0 .277-.215.277-.46 0-.466-.367-.618-.707-.282ZM35.629 23.621c0 .246.156.461.309.461.183 0 .308-.215.308-.46 0-.25-.125-.466-.309-.466-.152 0-.308.215-.308.465ZM37.168 23.621c0 .246.152.461.305.461.187 0 .308-.215.308-.46 0-.25-.12-.466-.308-.466-.153 0-.305.215-.305.465ZM38.703 23.621c0 .246.156.461.309.461.183 0 .308-.215.308-.46 0-.25-.125-.466-.308-.466-.153 0-.309.215-.309.465ZM40.242 23.621c0 .246.153.461.305.461.187 0 .308-.215.308-.46 0-.25-.12-.466-.308-.466-.152 0-.305.215-.305.465ZM41.777 23.621c0 .246.157.461.309.461.184 0 .309-.215.309-.46 0-.25-.125-.466-.31-.466-.151 0-.308.215-.308.465ZM43.316 23.621c0 .277.153.461.336.399.184-.06.34-.247.34-.399 0-.156-.156-.34-.34-.402-.183-.063-.336.12-.336.402ZM44.852 23.621c0 .277.152.461.34.399.183-.06.335-.247.335-.399 0-.156-.152-.34-.336-.402-.187-.063-.34.12-.34.402ZM46.39 23.59c0 .277.215.492.493.492.52 0 .43-.68-.125-.863-.215-.063-.367.093-.367.37ZM47.988 23.805c.063.183.246.308.399.308.152 0 .34-.125.398-.308.063-.184-.12-.34-.398-.34s-.461.156-.399.34ZM49.34 24.328c-.094.188-.031.434.152.527.461.31.77-.093.371-.496-.215-.214-.398-.214-.523-.03ZM50.262 25.535c-.336.34-.184.711.277.711.246 0 .461-.125.461-.281 0-.399-.492-.676-.738-.43ZM50.387 27.48c0 .153.152.31.304.31a.309.309 0 0 0 .309-.31c0-.187-.121-.308-.309-.308a.306.306 0 0 0-.304.308ZM50.387 29.023c0 .157.152.309.304.309a.306.306 0 0 0 .309-.309c0-.183-.121-.308-.309-.308a.308.308 0 0 0-.304.308ZM50.387 30.566c0 .157.152.309.304.309a.307.307 0 0 0 .309-.309c0-.183-.121-.308-.309-.308a.308.308 0 0 0-.304.308ZM50.387 32.113c0 .153.152.309.304.309a.309.309 0 0 0 .309-.309c0-.187-.121-.308-.309-.308a.306.306 0 0 0-.304.308ZM50.387 33.809c0 .25.152.464.304.464.188 0 .309-.214.309-.464 0-.246-.121-.461-.309-.461-.152 0-.304.215-.304.46ZM50.387 35.355c0 .247.152.461.304.461.188 0 .309-.214.309-.46 0-.25-.121-.465-.309-.465-.152 0-.304.214-.304.464ZM50.387 36.898c0 .247.152.465.304.465.188 0 .309-.218.309-.465 0-.246-.121-.464-.309-.464-.152 0-.304.218-.304.464ZM50.387 38.441c0 .25.152.465.304.465.188 0 .309-.215.309-.465 0-.246-.121-.46-.309-.46-.152 0-.304.214-.304.46ZM50.387 39.988c0 .246.152.461.304.461.188 0 .309-.215.309-.46 0-.25-.121-.466-.309-.466-.152 0-.304.215-.304.465ZM50.387 41.531c0 .246.152.461.304.461.188 0 .309-.215.309-.46 0-.247-.121-.466-.309-.466-.152 0-.304.22-.304.465ZM50.387 43.074c0 .246.152.465.304.465.188 0 .309-.219.309-.465 0-.246-.121-.46-.309-.46-.152 0-.304.214-.304.46ZM50.57 44.434c-.125.214-.156.464-.062.554.277.278.586-.12.43-.554-.122-.34-.184-.34-.368 0ZM50.078 46.316c0 .157.215.309.461.309.246 0 .461-.152.461-.309 0-.183-.215-.308-.46-.308-.247 0-.462.125-.462.308ZM49.523 47.582a.454.454 0 0 0 .403.309.453.453 0 0 0 .398-.309c.063-.184-.125-.34-.398-.34-.278 0-.461.156-.403.34ZM48.234 48.633c0 .277.153.465.336.402.188-.062.34-.246.34-.402 0-.153-.152-.34-.34-.403-.183-.058-.336.125-.336.403ZM26.41 48.79c0 .151.215.308.461.308.246 0 .461-.157.461-.309 0-.187-.215-.309-.46-.309-.247 0-.462.122-.462.31ZM27.945 48.79c0 .151.215.308.461.308.246 0 .461-.157.461-.309 0-.187-.215-.309-.46-.309-.247 0-.462.122-.462.31ZM29.48 48.79c0 .151.22.308.465.308.242 0 .461-.157.461-.309 0-.187-.218-.309-.46-.309-.247 0-.466.122-.466.31ZM31.02 48.79c0 .151.214.308.46.308.247 0 .461-.157.461-.309 0-.187-.214-.309-.46-.309-.247 0-.461.122-.461.31ZM32.555 48.79c0 .151.215.308.46.308.247 0 .462-.157.462-.309 0-.187-.215-.309-.461-.309-.246 0-.461.122-.461.31ZM34.402 48.79c0 .151.153.308.305.308a.312.312 0 0 0 .309-.309c0-.187-.125-.309-.309-.309a.306.306 0 0 0-.305.31ZM35.938 48.79c0 .151.152.308.308.308a.308.308 0 0 0 .305-.309c0-.187-.121-.309-.305-.309a.306.306 0 0 0-.309.31ZM37.473 48.79c0 .151.156.308.308.308a.312.312 0 0 0 .309-.309c0-.187-.125-.309-.309-.309a.309.309 0 0 0-.308.31ZM39.012 48.79c0 .151.152.308.308.308a.308.308 0 0 0 .305-.309c0-.187-.121-.309-.305-.309a.306.306 0 0 0-.308.31ZM40.547 48.79c0 .151.156.308.308.308a.312.312 0 0 0 .31-.309c0-.187-.126-.309-.31-.309a.309.309 0 0 0-.308.31ZM42.086 48.79c0 .151.215.308.46.308.247 0 .462-.157.462-.309 0-.187-.215-.309-.461-.309-.246 0-.461.122-.461.31ZM43.621 48.79c0 .151.215.308.461.308.246 0 .461-.157.461-.309 0-.187-.215-.309-.461-.309-.246 0-.46.122-.46.31ZM45.16 48.79c0 .151.215.308.461.308.246 0 .461-.157.461-.309 0-.187-.215-.309-.46-.309-.247 0-.462.122-.462.31ZM46.695 48.79c0 .151.215.308.461.308.246 0 .461-.157.461-.309 0-.187-.215-.309-.46-.309-.247 0-.462.122-.462.31Zm0 0" style="stroke:none;fill-rule:nonzero;fill:#fff;fill-opacity:1"/></svg>