<svg width="16" height="16" viewBox="0 0 16 16" fill="none" xmlns="http://www.w3.org/2000/svg">
<path d="M5.86462 16L5.53768 13.4392C5.51043 13.4324 5.40996 13.3794 5.23627 13.2804C5.06258 13.1814 4.81907 13.0465 4.50575 12.8758L2.14559 13.8592L0 10.1306L2.06386 8.56338C2.05023 8.47461 2.04342 8.38924 2.04342 8.3073V8.01024C2.04342 7.9283 2.04513 7.83952 2.04853 7.74392C2.05194 7.64831 2.06045 7.53905 2.07407 7.41613L0 5.8694L2.14559 2.16133L4.5364 3.16517C4.67263 3.05591 4.82418 2.95348 4.99106 2.85787C5.15794 2.76227 5.34014 2.6735 5.53768 2.59155L5.86462 0H10.1354L10.4623 2.56082C10.653 2.63594 10.8284 2.723 10.9885 2.82202C11.1486 2.92104 11.3035 3.03542 11.4534 3.16517L13.8544 2.16133L16 5.8694L13.8748 7.45711C13.8885 7.55271 13.8953 7.63978 13.8953 7.71831V8.31242C13.8953 8.39778 13.8851 8.48485 13.8646 8.57362L15.9693 10.1306L13.8238 13.8592L11.4534 12.8553C11.324 12.9577 11.1826 13.0534 11.0294 13.1421C10.8761 13.2309 10.6871 13.3299 10.4623 13.4392L10.1354 16H5.86462ZM7.98978 10.7759C8.75266 10.7759 9.40315 10.5062 9.94125 9.96671C10.4794 9.42723 10.7484 8.77507 10.7484 8.01024C10.7484 7.24541 10.4794 6.59326 9.94125 6.05378C9.40315 5.5143 8.75266 5.24456 7.98978 5.24456C7.22009 5.24456 6.5679 5.5143 6.03321 6.05378C5.49851 6.59326 5.23116 7.24541 5.23116 8.01024C5.23116 8.77507 5.49851 9.42723 6.03321 9.96671C6.5679 10.5062 7.22009 10.7759 7.98978 10.7759Z" fill="#F5F5F5"/>
</svg>
