<svg xmlns="http://www.w3.org/2000/svg" xmlns:xlink="http://www.w3.org/1999/xlink" width="20px" height="20px" viewBox="0 0 20 20" version="1.1">
<g id="surface1">
<path style=" stroke:none;fill-rule:nonzero;fill:#ffa026;fill-opacity:1;" d="M 9.886719 9.886719 C 8.527344 9.886719 7.363281 9.402344 6.394531 8.433594 C 5.425781 7.464844 4.945312 6.304688 4.945312 4.945312 C 4.945312 3.585938 5.425781 2.421875 6.394531 1.453125 C 7.363281 0.484375 8.527344 0 9.886719 0 C 11.246094 0 12.410156 0.484375 13.378906 1.453125 C 14.347656 2.421875 14.832031 3.585938 14.832031 4.945312 C 14.832031 6.304688 14.347656 7.464844 13.378906 8.433594 C 12.410156 9.402344 11.246094 9.886719 9.886719 9.886719 Z M 0 19.773438 L 0 16.3125 C 0 15.613281 0.179688 14.96875 0.539062 14.382812 C 0.902344 13.796875 1.378906 13.347656 1.976562 13.039062 C 3.253906 12.398438 4.550781 11.921875 5.871094 11.601562 C 7.1875 11.28125 8.527344 11.121094 9.886719 11.121094 C 11.246094 11.121094 12.585938 11.28125 13.902344 11.601562 C 15.222656 11.921875 16.519531 12.398438 17.796875 13.039062 C 18.394531 13.347656 18.871094 13.796875 19.234375 14.382812 C 19.59375 14.96875 19.773438 15.613281 19.773438 16.3125 L 19.773438 19.773438 Z M 0 19.773438 "/>
</g>
</svg>